<svg class="svg-icon" style="width: 1em; height: 1em;vertical-align: middle;fill: currentColor;overflow: hidden;" viewBox="0 0 1024 1024" version="1.1" xmlns="http://www.w3.org/2000/svg"><path d="M512 0c282.773333 0 512 229.226667 512 512S794.773333 1024 512 1024 0 794.773333 0 512 229.226667 0 512 0z m-170.666667 341.333333h170.666667a21.333333 21.333333 0 0 0 0-42.666666h-192a21.333333 21.333333 0 0 0-21.333333 21.333333v384a21.269333 21.269333 0 0 0 21.333333 21.333333h384a21.269333 21.269333 0 0 0 21.333333-21.333333v-192a21.333333 21.333333 0 0 0-42.666666 0v170.666667H341.333333V341.333333z m121.749334 249.749334l256-256a21.333333 21.333333 0 0 0-30.165334-30.165334l-256 256a21.333333 21.333333 0 0 0 30.165334 30.165334z"  /></svg>