<svg class="svg-icon" style="width: 1em; height: 1em;vertical-align: middle;fill: currentColor;overflow: hidden;" viewBox="0 0 1024 1024" version="1.1" xmlns="http://www.w3.org/2000/svg"><path d="M516.83328 921.63072H126.53568l57.06752-142.6944c-47.88224-66.88768-78.52032-171.33568-78.52032-269.056 0-227.04128 184.70912-411.7504 411.7504-411.7504s411.7504 184.71936 411.7504 411.7504c0 65.31072-14.848 127.77472-44.1344 185.6512l-25.89696-13.09696c27.20768-53.78048 41.0112-111.84128 41.0112-172.55424 0-211.03616-171.69408-382.72-382.73024-382.72-211.03616 0-382.72 171.69408-382.72 382.72 0 93.62432 31.15008 197.35552 77.5168 258.14016l4.99712 6.54336-47.21664 118.04672h347.42272c52.52096 0 135.3728-27.10528 177.28512-57.99936l17.22368 23.35744c-46.81728 34.5088-135.90528 63.66208-194.5088 63.66208z"  /><path d="M917.08416 827.94496h-194.56a15.36 15.36 0 0 1 0-30.72h194.56a15.36 15.36 0 1 1 0 30.72z"  /><path d="M819.80416 925.22496a15.36 15.36 0 0 1-15.36-15.36v-194.56a15.36 15.36 0 0 1 30.72 0v194.56a15.36 15.36 0 0 1-15.36 15.36z"  /></svg>