<svg class="svg-icon" style="width: 1em;height: 1em;vertical-align: middle;fill: currentColor;overflow: hidden;" viewBox="0 0 1024 1024" version="1.1" xmlns="http://www.w3.org/2000/svg"><path d="M146.285714 146.285714v146.285715h146.285715V146.285714H146.285714z m0-146.285714h146.285715a146.285714 146.285714 0 0 1 146.285714 146.285714v146.285715a146.285714 146.285714 0 0 1-146.285714 146.285714H146.285714a146.285714 146.285714 0 0 1-146.285714-146.285714V146.285714a146.285714 146.285714 0 0 1 146.285714-146.285714z" fill="#394648" /><path d="M658.285714 0h219.428572a146.285714 146.285714 0 0 1 146.285714 146.285714v219.428572a146.285714 146.285714 0 0 1-146.285714 146.285714H658.285714a146.285714 146.285714 0 0 1-146.285714-146.285714V146.285714a146.285714 146.285714 0 0 1 146.285714-146.285714zM146.285714 512h219.428572a146.285714 146.285714 0 0 1 146.285714 146.285714v219.428572a146.285714 146.285714 0 0 1-146.285714 146.285714H146.285714a146.285714 146.285714 0 0 1-146.285714-146.285714V658.285714a146.285714 146.285714 0 0 1 146.285714-146.285714z" fill="#57BFB5" /><path d="M731.428571 731.428571v146.285715h146.285715v-146.285715h-146.285715z m0-146.285714h146.285715a146.285714 146.285714 0 0 1 146.285714 146.285714v146.285715a146.285714 146.285714 0 0 1-146.285714 146.285714h-146.285715a146.285714 146.285714 0 0 1-146.285714-146.285714v-146.285715a146.285714 146.285714 0 0 1 146.285714-146.285714z" fill="#394648" /></svg>