<svg class="svg-icon" style="width: 1em;height: 1em;vertical-align: middle;fill: currentColor;overflow: hidden;" viewBox="0 0 1024 1024" version="1.1" xmlns="http://www.w3.org/2000/svg"><path d="M938.666667 256a170.666667 170.666667 0 0 0-170.666667-170.666667H256a170.666667 170.666667 0 0 0-170.666667 170.666667v661.333333a21.333333 21.333333 0 0 0 21.333334 21.333334 20.906667 20.906667 0 0 0 14.933333-6.4l128-128A128 128 0 0 1 341.333333 768h426.666667a170.666667 170.666667 0 0 0 170.666667-170.666667z m-170.666667 426.666667H341.333333a213.333333 213.333333 0 0 0-151.04 62.293333l-19.626666 17.92V256a85.333333 85.333333 0 0 1 85.333333-85.333333h512a85.333333 85.333333 0 0 1 85.333333 85.333333v341.333333a85.333333 85.333333 0 0 1-85.333333 85.333334z m-405.333333-213.333334H469.333333v106.666667a21.333333 21.333333 0 0 0 21.333334 21.333333h42.666666a21.333333 21.333333 0 0 0 21.333334-21.333333V469.333333h106.666666a21.333333 21.333333 0 0 0 21.333334-21.333333v-42.666667a21.333333 21.333333 0 0 0-21.333334-21.333333H554.666667V277.333333a21.333333 21.333333 0 0 0-21.333334-21.333333h-42.666666a21.333333 21.333333 0 0 0-21.333334 21.333333V384H362.666667a21.333333 21.333333 0 0 0-21.333334 21.333333v42.666667a21.333333 21.333333 0 0 0 21.333334 21.333333z"  /></svg>