<svg xmlns="http://www.w3.org/2000/svg" viewBox="0 0 303 248.44"><defs><style>.a{fill:#00a99d;}.a,.b,.c{stroke:#1b1464;stroke-width:7px;}.a,.b,.c,.d{stroke-miterlimit:10;}.b{fill:#29abe2;}.c{fill:#2e3192;}.d{fill:#fff;stroke:#00a99d;stroke-width:5px;}</style></defs><path class="a" d="M903,433s-5-88,117-88,109,88,109,88" transform="translate(-864.5 -329.5)"/><path class="b" d="M903,521.87V445.63A52.79,52.79,0,0,1,955.63,393h120.74A52.79,52.79,0,0,1,1129,445.63v76.24C1129,593.66,903,590.26,903,521.87Z" transform="translate(-864.5 -329.5)"/><path class="a" d="M38.5,103.5h0a0,0,0,0,1,0,0v85a0,0,0,0,1,0,0h0a35,35,0,0,1-35-35v-15A35,35,0,0,1,38.5,103.5Z"/><path class="a" d="M1164,433h0a0,0,0,0,1,0,0v85a0,0,0,0,1,0,0h0a35,35,0,0,1-35-35V468A35,35,0,0,1,1164,433Z" transform="translate(1428.5 621.5) rotate(180)"/><line class="a" x1="38.5" y1="103.5" x2="38.5" y2="23.5"/><line class="a" x1="264.5" y1="103.5" x2="264.5" y2="23.5"/><circle class="a" cx="39" cy="18" r="14.5"/><circle class="a" cx="264" cy="18" r="14.5"/><rect class="c" x="70.5" y="124.5" width="161" height="62" rx="31"/><circle class="d" cx="103.5" cy="156.5" r="12"/><circle class="d" cx="198" cy="157" r="12"/><path class="d" d="M998.5,486.5h38s0,18-21,18C1001.5,504.5,998.5,486.5,998.5,486.5Z" transform="translate(-864.5 -329.5)"/></svg>