<svg class="svg-icon" style="width: 1em;height: 1em;vertical-align: middle;fill: currentColor;overflow: hidden;" viewBox="0 0 1024 1024" version="1.1" xmlns="http://www.w3.org/2000/svg"><path d="M96.042667 243.456l102.826666 221.866667a110.933333 110.933333 0 0 1 0 93.312l-102.826666 221.866666a111.104 111.104 0 0 0 150.570666 146.005334l630.485334-315.008a111.232 111.232 0 0 0 0-198.997334L246.613333 97.493333A111.104 111.104 0 0 0 96 243.456z" fill="#FFB531" /><path d="M381.44 512a32.213333 32.213333 0 0 1-32 32H117.333333a32 32 0 1 1 0-64h232.106667a31.957333 31.957333 0 0 1 32 32z" fill="#030835" /></svg>