<svg class="svg-icon" style="width: 1em; height: 1em;vertical-align: middle;fill: currentColor;overflow: hidden;" viewBox="0 0 1024 1024" version="1.1" xmlns="http://www.w3.org/2000/svg"><path d="M525.5 596.2c-156.1 0-282.6 127.7-282.6 285.2h565.2c0-157.5-126.5-285.2-282.6-285.2z" fill="#FCEE21" /><path d="M491.2 892.8H187.3c-6.3 0-11.4-5.1-11.4-11.4 0-142.9 91.5-267.7 227.8-310.5 6-1.9 12.4 1.4 14.3 7.4 1.9 6-1.5 12.4-7.4 14.3C287.4 631.2 203.5 741.9 198.8 870h292.3c6.3 0 11.4 5.1 11.4 11.4s-5.1 11.4-11.3 11.4z" fill="#3E3A39" /><path d="M561.7 272.8c36.5 30.5 59.7 76.4 59.7 127.7 0 92-74.5 166.5-166.5 166.5-19.6 0-38.5-3.4-55.9-9.7 28.9 24.2 66.1 38.8 106.8 38.8 92 0 166.5-74.5 166.5-166.5-0.1-72.3-46.2-133.8-110.6-156.8z" fill="#F8B62D" /><path d="M621.4 400.6c0-51.3-23.2-97.2-59.7-127.7-17.5-6.2-36.3-9.7-55.9-9.7-92 0-166.5 74.5-166.5 166.5 0 51.3 23.2 97.2 59.7 127.7 17.5 6.2 36.3 9.7 55.9 9.7 91.9 0 166.5-74.6 166.5-166.5z" fill="#FCEE21" /><path d="M491.2 607.5c-106.1 0-192.4-86.3-192.4-192.4 0-25.4 4.9-50.1 14.5-73.4 2.4-5.8 9.1-8.6 14.9-6.2 5.8 2.4 8.6 9.1 6.2 14.9-8.5 20.5-12.8 42.3-12.8 64.7 0 93.6 76.1 169.7 169.7 169.7S661 508.7 661 415.1s-76.1-169.7-169.7-169.7c-37 0-72.1 11.7-101.6 33.8-5 3.8-12.2 2.7-15.9-2.3-3.8-5-2.7-12.2 2.3-15.9 33.5-25.1 73.3-38.3 115.2-38.3 106.1 0 192.4 86.3 192.4 192.4-0.1 106.1-86.4 192.4-192.5 192.4z" fill="#3E3A39" /><path d="M340.1 320c-1.9 0-3.7-0.5-5.5-1.4-5.5-3-7.5-9.9-4.5-15.4 3.2-5.8 7.7-11 13-15 5-3.8 12.2-2.7 15.9 2.3 3.8 5 2.7 12.2-2.3 15.9-2.8 2.1-5.1 4.8-6.7 7.8-2 3.7-5.9 5.8-9.9 5.8z" fill="#3E3A39" /><path d="M198.5 509.1c-17 0-30.8-13.8-30.8-30.8s13.8-30.8 30.8-30.8 30.8 13.8 30.8 30.8c0 16.9-13.8 30.8-30.8 30.8z m0-46.5c-8.6 0-15.7 7-15.7 15.7 0 8.6 7 15.7 15.7 15.7 8.6 0 15.7-7 15.7-15.7-0.1-8.7-7.1-15.7-15.7-15.7z" fill="#47B7F8" /><path d="M174.3 326.8h-13.5v-13.5c0-3.6-2.9-6.5-6.5-6.5s-6.5 2.9-6.5 6.5v13.5h-13.5c-3.6 0-6.5 2.9-6.5 6.5s2.9 6.5 6.5 6.5h13.5v13.5c0 3.6 2.9 6.5 6.5 6.5s6.5-2.9 6.5-6.5v-13.5h13.5c3.6 0 6.5-2.9 6.5-6.5s-2.9-6.5-6.5-6.5zM915.5 327.9H902v-13.5c0-3.6-2.9-6.5-6.5-6.5s-6.5 2.9-6.5 6.5v13.5h-13.5c-3.6 0-6.5 2.9-6.5 6.5s2.9 6.5 6.5 6.5H889v13.5c0 3.6 2.9 6.5 6.5 6.5s6.5-2.9 6.5-6.5v-13.5h13.5c3.6 0 6.5-2.9 6.5-6.5s-2.9-6.5-6.5-6.5z" fill="#F7E42F" /><path d="M874.7 463.4H859v-15.7c0-4.2-3.4-7.6-7.6-7.6s-7.6 3.4-7.6 7.6v15.7h-15.7c-4.2 0-7.6 3.4-7.6 7.6s3.4 7.6 7.6 7.6h15.7v15.7c0 4.2 3.4 7.6 7.6 7.6s7.6-3.4 7.6-7.6v-15.7h15.7c4.2 0 7.6-3.4 7.6-7.6s-3.4-7.6-7.6-7.6z" fill="#F8B62D" /><path d="M277 258.2m-11.4 0a11.4 11.4 0 1 0 22.8 0 11.4 11.4 0 1 0-22.8 0Z" fill="#F8B62D" /><path d="M785.3 318.2m-15.2 0a15.2 15.2 0 1 0 30.4 0 15.2 15.2 0 1 0-30.4 0Z" fill="#F8B62D" /><path d="M689.2 168.4m-15.2 0a15.2 15.2 0 1 0 30.4 0 15.2 15.2 0 1 0-30.4 0Z" fill="#F7E42F" /><path d="M503.9 175.3c-17 0-30.8-13.8-30.8-30.8s13.8-30.8 30.8-30.8 30.8 13.8 30.8 30.8c0.1 17-13.8 30.8-30.8 30.8z m0-46.5c-8.6 0-15.7 7-15.7 15.7 0 8.6 7 15.7 15.7 15.7s15.7-7 15.7-15.7-7-15.7-15.7-15.7z" fill="#F8B62D" /><path d="M322.3 102.3c-1.6-1.6-4.3-1.6-5.9 0-0.8 0.8-1.2 1.9-1.2 3s0.4 2.2 1.2 3l13.5 13.5c0.8 0.8 1.8 1.2 3 1.2 1.1 0 2.2-0.4 3-1.2 1.6-1.6 1.6-4.3 0-5.9l-13.6-13.6zM357.9 137.9c-0.8-0.8-1.8-1.2-3-1.2-1.1 0-2.2 0.4-3 1.2-1.6 1.6-1.6 4.3 0 5.9l13.5 13.5c0.8 0.8 1.8 1.2 3 1.2 1.1 0 2.2-0.4 3-1.2 0.8-0.8 1.2-1.8 1.2-3 0-1.1-0.4-2.2-1.2-3l-13.5-13.4zM354.9 123c1.1 0 2.2-0.4 3-1.2l13.5-13.5c0.8-0.8 1.2-1.8 1.2-3 0-1.1-0.4-2.2-1.2-3-1.6-1.6-4.3-1.6-5.9 0L352 115.8c-1.6 1.6-1.6 4.3 0 5.9 0.7 0.8 1.8 1.3 2.9 1.3zM329.8 137.9l-13.5 13.5c-0.8 0.8-1.2 1.9-1.2 3s0.4 2.2 1.2 3c0.8 0.8 1.8 1.2 3 1.2 1.1 0 2.2-0.4 3-1.2l13.5-13.5c1.6-1.6 1.6-4.3 0-5.9-1.6-1.7-4.4-1.7-6-0.1zM332.4 129.8c0-2.3-1.9-4.2-4.2-4.2h-19.1c-2.3 0-4.2 1.9-4.2 4.2 0 2.3 1.9 4.2 4.2 4.2h19.1c2.4 0 4.2-1.9 4.2-4.2zM378.5 125.6h-19.1c-2.3 0-4.2 1.9-4.2 4.2 0 2.3 1.9 4.2 4.2 4.2h19.1c2.3 0 4.2-1.9 4.2-4.2 0-2.3-1.9-4.2-4.2-4.2zM343.9 90.9c-2.3 0-4.2 1.9-4.2 4.2v19.1c0 2.3 1.9 4.2 4.2 4.2s4.2-1.9 4.2-4.2V95.1c0-2.3-1.9-4.2-4.2-4.2zM343.9 141.2c-2.3 0-4.2 1.9-4.2 4.2v19c0 2.3 1.9 4.2 4.2 4.2s4.2-1.9 4.2-4.2v-19c0-2.3-1.9-4.2-4.2-4.2z" fill="#FAEE00" /><path d="M948.1 892.8H921c-6.3 0-11.4-5.1-11.4-11.4S914.8 870 921 870h27.1c6.3 0 11.4 5.1 11.4 11.4s-5.1 11.4-11.4 11.4zM110.5 892.8H75.9c-6.3 0-11.4-5.1-11.4-11.4S69.6 870 75.9 870h34.7c6.3 0 11.4 5.1 11.4 11.4s-5.2 11.4-11.5 11.4z" fill="#3E3A39" /><path d="M877.6 892.8H146.4c-6.3 0-11.4-5.1-11.4-11.4s5.1-11.4 11.4-11.4h731.2c6.3 0 11.4 5.1 11.4 11.4s-5.1 11.4-11.4 11.4z" fill="#3E3A39" /><path d="M716.3 778.4m-143.3 0a143.3 143.3 0 1 0 286.6 0 143.3 143.3 0 1 0-286.6 0Z" fill="#FFFFFF" /><path d="M709.6 933.1c-93.1 0-168.9-75.8-168.9-168.9 0-93.1 75.8-168.9 168.9-168.9S878.5 671 878.5 764.1c0 93.2-75.7 169-168.9 169z m0-315.1c-80.6 0-146.2 65.6-146.2 146.2S629 910.4 709.6 910.4s146.2-65.6 146.2-146.2c0-80.7-65.6-146.2-146.2-146.2z" fill="#3E3A39" /><path d="M697.8 845.9c-2.8 0-5.5-1-7.6-2.9l-73.1-65.6c-4.7-4.2-5.1-11.4-0.9-16.1 4.2-4.7 11.4-5.1 16.1-0.9l63.9 57.4 87.3-114.2c3.8-5 11-5.9 15.9-2.1 5 3.8 5.9 11 2.1 15.9l-94.8 123.9c-1.9 2.5-4.8 4.1-8 4.4-0.2 0.2-0.5 0.2-0.9 0.2z" fill="#3E3A39" /></svg>